<svg width="24" height="27" fill="none" xmlns="http://www.w3.org/2000/svg"><path clip-rule="evenodd" d="M20.571 1.688h-2.125A3.402 3.402 0 0 0 17.17.44 3.471 3.471 0 0 0 15.429 0H8.57a3.47 3.47 0 0 0-1.71.452c-.52.297-.953.722-1.253 1.235H3.429c-.91 0-1.782.355-2.425.988A3.348 3.348 0 0 0 0 5.063v18.562a3.35 3.35 0 0 0 1.004 2.387A3.457 3.457 0 0 0 3.43 27h17.14a3.46 3.46 0 0 0 2.425-.988A3.348 3.348 0 0 0 24 23.625V5.063a3.35 3.35 0 0 0-1.004-2.387 3.457 3.457 0 0 0-2.425-.988zm-12 1.687h6.858v1.688H8.57V3.375zm12 20.25H3.43V5.063h1.714c0 .895.361 1.753 1.004 2.386a3.456 3.456 0 0 0 2.424.989h6.858c.909 0 1.781-.356 2.424-.989a3.348 3.348 0 0 0 1.004-2.386h1.714v18.562zM15.43 11.813H8.57c-.454 0-.89.178-1.212.494a1.674 1.674 0 0 0-.502 1.193c0 .448.18.877.502 1.193.322.317.758.495 1.212.495h6.858c.454 0 .89-.178 1.212-.495a1.672 1.672 0 0 0 0-2.386 1.728 1.728 0 0 0-1.212-.494zM12 16.875H8.571c-.454 0-.89.178-1.212.494a1.674 1.674 0 0 0-.502 1.194c0 .447.18.876.502 1.193.322.316.758.494 1.212.494H12c.455 0 .89-.178 1.212-.494a1.673 1.673 0 0 0 0-2.387A1.728 1.728 0 0 0 12 16.875z"/></svg>