<svg width="24" height="22" fill="none" xmlns="http://www.w3.org/2000/svg"><path clip-rule="evenodd" d="M23.855 8.182a2.935 2.935 0 0 0-.942-1.308 3.11 3.11 0 0 0-1.514-.643l-4.666-.586-2.028-4.049A2.982 2.982 0 0 0 13.58.431 3.14 3.14 0 0 0 11.991 0 3.14 3.14 0 0 0 10.4.43a2.982 2.982 0 0 0-1.124 1.166L7.263 5.645l-4.666.586a3.11 3.11 0 0 0-1.523.64 2.936 2.936 0 0 0-.948 1.311 2.826 2.826 0 0 0-.028 1.573c.14.517.424.988.821 1.36l3.416 3.096-.87 4.4a2.831 2.831 0 0 0 .207 1.572c.217.496.571.924 1.025 1.24a3.153 3.153 0 0 0 3.161.24l4.132-2.142 4.133 2.142c.442.223.934.34 1.433.337.634 0 1.253-.19 1.77-.543.461-.314.819-.75 1.03-1.254a2.73 2.73 0 0 0 .159-1.591l-.87-4.401 3.417-3.095c.41-.364.704-.835.844-1.355a2.7 2.7 0 0 0-.051-1.579zm-7.457 5.046l1.159 5.94-5.567-2.933-5.566 2.934 1.16-5.94-4.576-4.152 6.298-.792 2.715-5.457 2.73 5.457 6.283.792-4.636 4.151z"/></svg>