<svg width="24" height="21" fill="none" xmlns="http://www.w3.org/2000/svg"><path clip-rule="evenodd" d="M17.705 7.496a3.02 3.02 0 0 0-.865-2.12 2.927 2.927 0 0 0-2.086-.878h-1.476v-1.5c0-.795-.31-1.557-.864-2.12A2.927 2.927 0 0 0 10.328 0H2.95A2.93 2.93 0 0 0 .864.878 3.023 3.023 0 0 0 0 2.998v1.5c0 .795.31 1.558.864 2.12a2.927 2.927 0 0 0 2.087.878h1.475v1.5c-.782 0-1.533.315-2.086.878a3.023 3.023 0 0 0-.865 2.12v1.5a3.036 3.036 0 0 0 .393 1.505 2.97 2.97 0 0 0 1.083 1.103c-.008.13-.008.26 0 .39v1.5c0 .794.31 1.557.864 2.12a2.927 2.927 0 0 0 2.087.878h7.376a2.914 2.914 0 0 0 1.476-.39 6.46 6.46 0 0 0 2.228.39 6.586 6.586 0 0 0 4.802-1.711 6.8 6.8 0 0 0 2.206-4.661 6.825 6.825 0 0 0-1.684-4.88 6.609 6.609 0 0 0-4.587-2.242h-.014zM2.95 4.498v-1.5h7.377v1.5H2.95zm1.475 8.995v-1.499h6.285a6.32 6.32 0 0 0-.339 1.5H4.426zm1.476 4.498v-1.5h4.81c.176.533.424 1.037.737 1.5H5.902zm6.904-8.995h-5.43v-1.5h7.378v.39a6.291 6.291 0 0 0-1.903 1.11h-.045zm4.16 8.995a3.631 3.631 0 0 1-2.281-.802 3.708 3.708 0 0 1-1.052-1.357 3.585 3.585 0 0 1-.354-1.59c.001-.25.026-.502.073-.749a3.83 3.83 0 0 1 .664-1.499c.345-.465.79-.842 1.302-1.102a3.655 3.655 0 0 1 1.649-.397h.34a3.668 3.668 0 0 1 2.558 1.22 3.788 3.788 0 0 1 .96 2.7 3.777 3.777 0 0 1-1.2 2.6 3.658 3.658 0 0 1-2.658.976z"/></svg>