<svg width="24" height="24" fill="none" xmlns="http://www.w3.org/2000/svg"><path clip-rule="evenodd" d="M22.48 12.594l-1.166-.601 1.135-.572a3.021 3.021 0 0 0 1.445-1.824 2.918 2.918 0 0 0-.31-2.278l-1.555-2.615a3.042 3.042 0 0 0-.804-.882 3.155 3.155 0 0 0-1.093-.516 3.193 3.193 0 0 0-2.364.3l-1.119.617V3.006a2.96 2.96 0 0 0-.91-2.126 3.165 3.165 0 0 0-2.2-.88h-3.11c-.824 0-1.615.317-2.198.88a2.956 2.956 0 0 0-.911 2.126v1.247l-1.09-.646a3.193 3.193 0 0 0-2.363-.3 3.09 3.09 0 0 0-1.881 1.397L.432 7.319a2.918 2.918 0 0 0-.31 2.278c.212.77.732 1.425 1.445 1.824l1.088.572-1.104.586a3.021 3.021 0 0 0-1.445 1.824 2.918 2.918 0 0 0 .31 2.278l1.555 2.615a3.098 3.098 0 0 0 1.881 1.398 3.192 3.192 0 0 0 2.363-.3l1.12-.617v1.217c0 .797.328 1.562.911 2.126.583.563 1.374.88 2.2.88h3.109c.825 0 1.616-.317 2.199-.88.583-.564.91-1.329.91-2.126v-1.247l1.09.646a3.193 3.193 0 0 0 2.362.3 3.13 3.13 0 0 0 1.093-.515c.326-.24.6-.54.805-.882l1.554-2.615a2.916 2.916 0 0 0 .323-2.26 3.018 3.018 0 0 0-1.411-1.827zm-2.721 1.968l1.12.632-1.556 2.614-1.119-.63a3.194 3.194 0 0 0-1.555-.392 3.195 3.195 0 0 0-1.555.406 3.06 3.06 0 0 0-1.126 1.08c-.272.447-.42.956-.429 1.475v1.262h-3.11v-1.247a2.931 2.931 0 0 0-.428-1.476 3.06 3.06 0 0 0-1.126-1.079 3.192 3.192 0 0 0-1.555-.405 3.29 3.29 0 0 0-1.555.39l-1.12.631-1.554-2.614 1.103-.617a3.058 3.058 0 0 0 1.116-1.097 2.928 2.928 0 0 0 0-2.975 3.057 3.057 0 0 0-1.116-1.097l-1.103-.616 1.554-2.615 1.12.63a3.29 3.29 0 0 0 1.555.392 3.195 3.195 0 0 0 1.555-.406c.465-.26.853-.632 1.126-1.08.272-.447.42-.956.429-1.475V2.976h3.11v1.247a2.93 2.93 0 0 0 .428 1.475c.273.448.66.82 1.126 1.08a3.193 3.193 0 0 0 1.555.405 3.194 3.194 0 0 0 1.555-.39l1.12-.631 1.554 2.614-1.12.632c-.465.26-.852.631-1.125 1.079-.273.448-.42.956-.429 1.475 0 .527.145 1.045.417 1.502a3.06 3.06 0 0 0 1.138 1.098zm-7.774-5.575c-.616 0-1.217.176-1.728.506-.512.33-.91.8-1.146 1.35a2.912 2.912 0 0 0-.177 1.736 2.98 2.98 0 0 0 .852 1.539c.434.42.989.706 1.592.822a3.21 3.21 0 0 0 1.796-.17 3.09 3.09 0 0 0 1.396-1.108 2.934 2.934 0 0 0 .524-1.67c0-.797-.327-1.561-.91-2.125a3.165 3.165 0 0 0-2.2-.88z"/></svg>