<svg xmlns="http://www.w3.org/2000/svg"><symbol id="icon-buytokens" viewBox="0 0 24 21">
<path fill-rule="evenodd" clip-rule="evenodd" d="M17.7046 7.49628C17.7046 6.70103 17.3937 5.93834 16.8403 5.37601C16.2869 4.81368 15.5364 4.49777 14.7538 4.49777H13.2785V2.99851C13.2785 2.20326 12.9675 1.44057 12.4142 0.878242C11.8608 0.315912 11.1103 0 10.3277 0H2.95077C2.16818 0 1.41768 0.315912 0.864303 0.878242C0.310926 1.44057 0 2.20326 0 2.99851V4.49777C0 5.29302 0.310926 6.05571 0.864303 6.61804C1.41768 7.18037 2.16818 7.49628 2.95077 7.49628H4.42615V8.99554C3.64356 8.99554 2.89306 9.31145 2.33969 9.87378C1.78631 10.4361 1.47538 11.1988 1.47538 11.9941V13.4933C1.47332 14.0217 1.60865 14.5412 1.86773 14.9993C2.12682 15.4574 2.50047 15.8378 2.95077 16.102C2.94288 16.2318 2.94288 16.362 2.95077 16.4918V17.9911C2.95077 18.7863 3.2617 19.549 3.81507 20.1113C4.36845 20.6737 5.11895 20.9896 5.90154 20.9896H13.2785C13.7954 20.9932 14.3041 20.8588 14.7538 20.5998C15.4686 20.8599 16.2225 20.9918 16.9817 20.9896C18.7425 21.089 20.4701 20.4735 21.7843 19.2786C23.0986 18.0836 23.8919 16.4071 23.9898 14.6177C24.0876 12.8284 23.4819 11.0729 22.306 9.73734C21.1301 8.40181 19.4802 7.59569 17.7194 7.49628H17.7046ZM2.95077 4.49777V2.99851H10.3277V4.49777H2.95077ZM4.42615 13.4933V11.9941H10.7113C10.5377 12.4777 10.4238 12.9812 10.372 13.4933H4.42615ZM5.90154 17.9911V16.4918H10.7113C10.8882 17.0237 11.1364 17.5282 11.449 17.9911H5.90154ZM12.8063 8.99554H7.37692V7.49628H14.7538V7.8861C14.0606 8.14022 13.4165 8.51569 12.8506 8.99554H12.8063ZM16.9669 17.9911C16.7193 17.9892 16.4723 17.9641 16.2292 17.9161C15.6657 17.8005 15.137 17.5515 14.6859 17.1894C14.2347 16.8274 13.8738 16.3624 13.6325 15.8321C13.3944 15.3376 13.2732 14.7935 13.2785 14.2429C13.2803 13.9913 13.305 13.7403 13.3522 13.4933C13.463 12.9502 13.6896 12.4385 14.0162 11.9941C14.3605 11.5294 14.8062 11.1522 15.3182 10.8921C15.8302 10.6319 16.3945 10.496 16.9669 10.4948H17.3062C18.2845 10.5405 19.2048 10.9792 19.8647 11.7145C20.5246 12.4497 20.87 13.4213 20.825 14.4153C20.78 15.4094 20.3483 16.3446 19.6248 17.0152C18.9012 17.6858 17.9452 18.0368 16.9669 17.9911Z"/>
</symbol><symbol id="icon-companyprofile" viewBox="0 0 24 24">
<path fill-rule="evenodd" clip-rule="evenodd" d="M22.7099 6.50599L13.71 0.504606C13.217 0.175613 12.6376 3.36832e-05 12.045 3.36832e-05C11.4524 3.36832e-05 10.8729 0.175613 10.3799 0.504606L1.37997 6.50599C0.961726 6.77435 0.616692 7.14233 0.375822 7.57704C0.134953 8.01176 0.00581815 8.49955 0 8.99653V20.9993C0 21.7951 0.316113 22.5583 0.878719 23.1211C1.44133 23.6838 2.20434 24 2.99999 24H20.9999C21.7956 24 22.5586 23.6838 23.1212 23.1211C23.6838 22.5583 23.9999 21.7951 23.9999 20.9993V8.99653C24.004 8.50769 23.8885 8.0253 23.6637 7.59124C23.4389 7.15717 23.1115 6.78462 22.7099 6.50599ZM20.9999 20.9993H14.9999V13.4976H8.99996V20.9993H2.99999V8.99653L11.9999 2.99514L20.9999 8.99653V20.9993Z"/>
</symbol><symbol id="icon-documents" viewBox="0 0 24 21">
<path fill-rule="evenodd" clip-rule="evenodd" d="M21 3H13.86L13.185 1.66498C12.9366 1.16516 12.5538 0.744577 12.0794 0.450439C11.6051 0.156302 11.0581 0.000296163 10.5 0H3C2.20435 0 1.44129 0.316068 0.878677 0.878677C0.316068 1.44129 0 2.20435 0 3V18C0 18.7956 0.316068 19.5587 0.878677 20.1213C1.44129 20.6839 2.20435 21 3 21H21C21.7956 21 22.5587 20.6839 23.1213 20.1213C23.6839 19.5587 24 18.7956 24 18V6C24 5.20435 23.6839 4.44129 23.1213 3.87868C22.5587 3.31607 21.7956 3 21 3ZM21 18H3V3H10.5L12 6H13.5V13.755L16.5 10.755L19.5 13.755V6H21V18Z"/>
</symbol><symbol id="icon-logistic" viewBox="0 0 24 24">
<path fill-rule="evenodd" clip-rule="evenodd" d="M24 3.00001C24.0007 2.58613 23.9158 2.17657 23.7506 1.79709C23.5854 1.41762 23.3434 1.07644 23.04 0.795004C22.4844 0.28247 21.7559 -0.00145389 21 5.599e-06H20.76L2.76001 1.50001C2.00666 1.56046 1.30392 1.90301 0.792221 2.4592C0.280525 3.01539 -0.0024066 3.74424 1.54225e-05 4.5V7.5C0.00550163 8.02826 0.150384 8.54571 0.420013 9C0.150384 9.4543 0.00550163 9.97174 1.54225e-05 10.5V21C1.54225e-05 21.7956 0.316083 22.5587 0.878692 23.1213C1.4413 23.6839 2.20436 24 3.00001 24H21C21.7956 24 22.5587 23.6839 23.1213 23.1213C23.6839 22.5587 24 21.7956 24 21V10.5C23.9995 10.074 23.9082 9.65309 23.7323 9.26514C23.5565 8.87719 23.3 8.53113 22.98 8.25C23.3 7.96887 23.5565 7.62282 23.7323 7.23487C23.9082 6.84691 23.9995 6.42596 24 6V3.00001ZM21 21H3.00001V10.5H21V21ZM21 6L3.00001 7.5V4.5L21 3.00001V6Z"/>
</symbol><symbol id="icon-myorders" viewBox="0 0 24 27">
<path fill-rule="evenodd" clip-rule="evenodd" d="M20.5714 1.68781H18.4457C18.1408 1.16776 17.7004 0.737215 17.17 0.440582C16.6397 0.143949 16.0385 -0.00803059 15.4286 0.000327016H8.57143C7.97018 0.000934073 7.37968 0.157169 6.85914 0.453353C6.3386 0.749537 5.90634 1.17526 5.60572 1.68781H3.42857C2.51926 1.68781 1.64718 2.04338 1.0042 2.67631C0.361221 3.30923 0 4.16767 0 5.06277V23.625C0 24.5201 0.361221 25.3786 1.0042 26.0115C1.64718 26.6444 2.51926 27 3.42857 27H20.5714C21.4807 27 22.3528 26.6444 22.9958 26.0115C23.6388 25.3786 24 24.5201 24 23.625V5.06277C24 4.16767 23.6388 3.30923 22.9958 2.67631C22.3528 2.04338 21.4807 1.68781 20.5714 1.68781ZM8.57143 3.37529H15.4286V5.06277H8.57143V3.37529ZM20.5714 23.625H3.42857V5.06277H5.14286C5.14286 5.95786 5.50408 6.8163 6.14706 7.44922C6.79004 8.08215 7.66212 8.43772 8.57143 8.43772H15.4286C16.3379 8.43772 17.21 8.08215 17.8529 7.44922C18.4959 6.8163 18.8571 5.95786 18.8571 5.06277H20.5714V23.625ZM15.4286 11.8127H8.57143C8.11677 11.8127 7.68074 11.9905 7.35924 12.307C7.03775 12.6234 6.85714 13.0526 6.85714 13.5002C6.85714 13.9477 7.03775 14.3769 7.35924 14.6934C7.68074 15.0098 8.11677 15.1876 8.57143 15.1876H15.4286C15.8832 15.1876 16.3193 15.0098 16.6408 14.6934C16.9622 14.3769 17.1429 13.9477 17.1429 13.5002C17.1429 13.0526 16.9622 12.6234 16.6408 12.307C16.3193 11.9905 15.8832 11.8127 15.4286 11.8127ZM12 16.8751H8.57143C8.11677 16.8751 7.68074 17.0529 7.35924 17.3694C7.03775 17.6859 6.85714 18.1151 6.85714 18.5626C6.85714 19.0101 7.03775 19.4393 7.35924 19.7558C7.68074 20.0723 8.11677 20.2501 8.57143 20.2501H12C12.4547 20.2501 12.8907 20.0723 13.2122 19.7558C13.5337 19.4393 13.7143 19.0101 13.7143 18.5626C13.7143 18.1151 13.5337 17.6859 13.2122 17.3694C12.8907 17.0529 12.4547 16.8751 12 16.8751Z"/>
</symbol><symbol id="icon-neworder" viewBox="0 0 24 24">
<path fill-rule="evenodd" clip-rule="evenodd" d="M21.6 9.6H14.4V2.4C14.4 1.76348 14.1471 1.15307 13.6971 0.702979C13.247 0.252891 12.6365 0 12 0C11.3635 0 10.753 0.252891 10.3029 0.702979C9.85286 1.15307 9.6 1.76348 9.6 2.4V9.6H2.4C1.76348 9.6 1.15303 9.85289 0.702944 10.303C0.252856 10.7531 0 11.3635 0 12C0 12.6365 0.252856 13.2469 0.702944 13.697C1.15303 14.1471 1.76348 14.4 2.4 14.4H9.6V21.6C9.6 22.2365 9.85286 22.8469 10.3029 23.297C10.753 23.7471 11.3635 24 12 24C12.6365 24 13.247 23.7471 13.6971 23.297C14.1471 22.8469 14.4 22.2365 14.4 21.6V14.4H21.6C22.2365 14.4 22.847 14.1471 23.2971 13.697C23.7471 13.2469 24 12.6365 24 12C24 11.3635 23.7471 10.7531 23.2971 10.303C22.847 9.85289 22.2365 9.6 21.6 9.6Z"/>
</symbol><symbol id="icon-orders" viewBox="0 0 24 24">
<path fill-rule="evenodd" clip-rule="evenodd" d="M21 0H3C2.20435 0 1.44129 0.316068 0.878677 0.878677C0.316068 1.44129 0 2.20435 0 3V21C0 21.7956 0.316068 22.5587 0.878677 23.1213C1.44129 23.6839 2.20435 24 3 24H21C21.7956 24 22.5587 23.6839 23.1213 23.1213C23.6839 22.5587 24 21.7956 24 21V3C24 2.20435 23.6839 1.44129 23.1213 0.878677C22.5587 0.316068 21.7956 0 21 0ZM3 3H6V6H3V3ZM21 21H3V9H21V21ZM21 6H9V3H21V6ZM7.5 13.5H16.5C16.8978 13.5 17.2793 13.3419 17.5606 13.0606C17.8419 12.7793 18 12.3978 18 12C18 11.6022 17.8419 11.2207 17.5606 10.9394C17.2793 10.6581 16.8978 10.5 16.5 10.5H7.5C7.10218 10.5 6.72067 10.6581 6.43936 10.9394C6.15806 11.2207 6 11.6022 6 12C6 12.3978 6.15806 12.7793 6.43936 13.0606C6.72067 13.3419 7.10218 13.5 7.5 13.5ZM7.5 18H10.5C10.8978 18 11.2793 17.8419 11.5606 17.5606C11.8419 17.2793 12 16.8978 12 16.5C12 16.1022 11.8419 15.7207 11.5606 15.4394C11.2793 15.1581 10.8978 15 10.5 15H7.5C7.10218 15 6.72067 15.1581 6.43936 15.4394C6.15806 15.7207 6 16.1022 6 16.5C6 16.8978 6.15806 17.2793 6.43936 17.5606C6.72067 17.8419 7.10218 18 7.5 18Z"/>
</symbol><symbol id="icon-rating" viewBox="0 0 24 22">
<path fill-rule="evenodd" clip-rule="evenodd" d="M23.8547 8.18222C23.672 7.67102 23.3461 7.21832 22.9128 6.87405C22.4796 6.52979 21.9558 6.30737 21.3995 6.23132L16.7331 5.64455L14.7048 1.59606C14.4489 1.11552 14.06 0.712219 13.5811 0.430611C13.1022 0.149003 12.5517 1.8401e-05 11.9904 1.8401e-05C11.429 1.8401e-05 10.8786 0.149003 10.3997 0.430611C9.92073 0.712219 9.53188 1.11552 9.27593 1.59606L7.26295 5.64455L2.59654 6.23132C2.03743 6.30484 1.51048 6.52609 1.07433 6.87052C0.638179 7.21495 0.309929 7.66903 0.126085 8.18222C-0.0319405 8.69432 -0.0416079 9.2382 0.0981386 9.75521C0.237885 10.2722 0.521724 10.7427 0.919055 11.1159L4.335 14.211L3.46578 18.6116C3.38333 19.1436 3.45453 19.6872 3.67162 20.1829C3.88871 20.6787 4.24332 21.1074 4.69668 21.4224C5.15004 21.7373 5.68468 21.9263 6.24218 21.9687C6.79967 22.0111 7.35854 21.9052 7.85769 21.6626L11.9904 19.521L16.123 21.6626C16.565 21.8862 17.0572 22.0021 17.5565 22C18.1905 22.0003 18.8088 21.8106 19.3255 21.4572C19.787 21.1429 20.1446 20.7074 20.3556 20.2028C20.5665 19.6981 20.6219 19.1457 20.515 18.6116L19.6458 14.211L23.0617 11.1159C23.4725 10.7516 23.7657 10.2813 23.9063 9.76112C24.0469 9.24094 24.029 8.69287 23.8547 8.18222ZM16.3976 13.2282L17.5565 19.1689L11.9904 16.2352L6.42421 19.1689L7.58321 13.2282L3.00829 9.07702L9.30641 8.28491L12.0209 2.82821L14.7506 8.28491L21.0335 9.07702L16.3976 13.2282Z"/>
</symbol><symbol id="icon-settings" viewBox="0 0 24 24">
<path fill-rule="evenodd" clip-rule="evenodd" d="M22.48 12.5936L21.3138 11.9925L22.4488 11.4214C23.1617 11.0223 23.6816 10.3662 23.8944 9.59699C24.1072 8.8278 23.9956 8.00842 23.584 7.31872L22.0291 4.70382C21.8236 4.36166 21.5502 4.06207 21.2247 3.82223C20.8992 3.5824 20.5279 3.40704 20.1321 3.3062C19.8693 3.23337 19.5969 3.19793 19.3235 3.201C18.7773 3.20194 18.241 3.34188 17.7686 3.60676L16.6491 4.22292V3.00564C16.6491 2.20849 16.3214 1.44399 15.7382 0.880329C15.155 0.316663 14.3641 6.87935e-07 13.5393 6.87935e-07H10.4296C9.60479 6.87935e-07 8.81385 0.316663 8.23066 0.880329C7.64746 1.44399 7.31978 2.20849 7.31978 3.00564V4.25297L6.23133 3.60676C5.7589 3.34188 5.22261 3.20194 4.67644 3.201C4.4032 3.19995 4.13119 3.23535 3.86796 3.3062C3.07434 3.51341 2.39787 4.01591 1.98651 4.70382L0.431618 7.31872C0.0199806 8.00842 -0.0917138 8.8278 0.121095 9.59699C0.333905 10.3662 0.853796 11.0223 1.56666 11.4214L2.6551 11.9925L1.55109 12.5786C0.838232 12.9777 0.318341 13.6338 0.105531 14.403C-0.107278 15.1722 0.00441651 15.9916 0.416054 16.6813L1.97095 19.2962C2.3823 19.9841 3.05878 20.4866 3.8524 20.6938C4.11562 20.7646 4.38764 20.8 4.66088 20.799C5.20705 20.7981 5.74333 20.6581 6.21577 20.3932L7.33534 19.7771V20.9944C7.33534 21.7915 7.66293 22.556 8.24613 23.1197C8.82932 23.6833 9.62036 24 10.4451 24H13.5549C14.3797 24 15.1706 23.6833 15.7538 23.1197C16.337 22.556 16.6647 21.7915 16.6647 20.9944V19.747L17.7531 20.3932C18.2256 20.6581 18.7619 20.7981 19.308 20.799C19.5814 20.8021 19.8537 20.7666 20.1165 20.6938C20.5123 20.593 20.8837 20.4176 21.2092 20.1778C21.5347 19.9379 21.8081 19.6383 22.0135 19.2962L23.5684 16.6813C23.9791 15.9984 24.0951 15.1867 23.8915 14.4217C23.6878 13.6568 23.1807 13.0001 22.48 12.5936ZM19.7589 14.5623L20.8784 15.1935L19.3235 17.8084L18.204 17.1772C17.7301 16.9176 17.1939 16.7828 16.6491 16.7865C16.103 16.7874 15.5667 16.9274 15.0942 17.1922C14.6287 17.4519 14.2408 17.8237 13.9683 18.2715C13.6958 18.7193 13.548 19.2276 13.5393 19.747V21.0094H10.4296V19.7621C10.4209 19.2426 10.2731 18.7343 10.0006 18.2865C9.72809 17.8388 9.34017 17.4669 8.87467 17.2073C8.40223 16.9424 7.86595 16.8024 7.31978 16.8015C6.77555 16.802 6.24042 16.9364 5.76488 17.1922L4.64541 17.8234L3.09052 15.2085L4.19443 14.5924C4.65848 14.3262 5.04292 13.948 5.30992 13.4948C5.57692 13.0416 5.71734 12.529 5.71734 12.0075C5.71734 11.486 5.57692 10.9734 5.30992 10.5202C5.04292 10.067 4.65848 9.6888 4.19443 9.42267L3.09052 8.80651L4.64541 6.19161L5.76488 6.82279C6.24042 7.07859 6.77555 7.21307 7.31978 7.21352C7.86595 7.21259 8.40223 7.07264 8.87467 6.80776C9.34017 6.54809 9.72809 6.17625 10.0006 5.7285C10.2731 5.28075 10.4209 4.77238 10.4296 4.25297V2.97558H13.5393V4.22292C13.548 4.74233 13.6958 5.25069 13.9683 5.69844C14.2408 6.1462 14.6287 6.51804 15.0942 6.77771C15.5667 7.04258 16.103 7.18253 16.6491 7.18347C17.1939 7.1871 17.7301 7.05237 18.204 6.79274L19.3235 6.16155L20.8784 8.77646L19.7589 9.40764C19.2934 9.66731 18.9055 10.0392 18.633 10.4869C18.3605 10.9347 18.2127 11.443 18.204 11.9624C18.2046 12.4895 18.3485 13.0072 18.6214 13.4635C18.8943 13.9198 19.2866 14.2988 19.7589 14.5623ZM11.9845 8.98685C11.3694 8.98685 10.7681 9.16313 10.2567 9.49339C9.74534 9.82365 9.34673 10.2931 9.11136 10.8423C8.87598 11.3915 8.81447 11.9958 8.93446 12.5789C9.05445 13.1619 9.35064 13.6974 9.78555 14.1178C10.2205 14.5381 10.7745 14.8244 11.3777 14.9404C11.981 15.0563 12.6063 14.9968 13.1745 14.7693C13.7428 14.5418 14.2285 14.1566 14.5702 13.6623C14.9119 13.1681 15.0942 12.5869 15.0942 11.9925C15.0942 11.1953 14.7666 10.4308 14.1834 9.86718C13.6002 9.30351 12.8092 8.98685 11.9845 8.98685Z"/>
</symbol><symbol id="icon-wallet" viewBox="0 0 24 24">
<path fill-rule="evenodd" clip-rule="evenodd" d="M21 6H9C8.20435 6 7.44133 6.31611 6.87872 6.87872C6.31611 7.44133 6 8.20435 6 9V21C6 21.7956 6.31611 22.5587 6.87872 23.1213C7.44133 23.6839 8.20435 24 9 24H21C21.7956 24 22.5587 23.6839 23.1213 23.1213C23.6839 22.5587 24 21.7956 24 21V9C24 8.20435 23.6839 7.44133 23.1213 6.87872C22.5587 6.31611 21.7956 6 21 6ZM21 21H9V9H21V21ZM3 15V3H15C15 3.39782 15.1581 3.77933 15.4394 4.06064C15.7207 4.34194 16.1022 4.5 16.5 4.5C16.8978 4.5 17.2793 4.34194 17.5606 4.06064C17.8419 3.77933 18 3.39782 18 3C18 2.20435 17.6839 1.44133 17.1213 0.878723C16.5587 0.316114 15.7956 0 15 0H3C2.20435 0 1.44133 0.316114 0.878723 0.878723C0.316114 1.44133 0 2.20435 0 3V15C0 15.7956 0.316114 16.5587 0.878723 17.1213C1.44133 17.6839 2.20435 18 3 18C3.39782 18 3.77933 17.8419 4.06064 17.5606C4.34194 17.2793 4.5 16.8978 4.5 16.5C4.5 16.1022 4.34194 15.7207 4.06064 15.4394C3.77933 15.1581 3.39782 15 3 15Z"/>
</symbol></svg>